<svg xmlns="http://www.w3.org/2000/svg" width="335" height="292" viewBox="0 0 335 292">
  <defs>
    <style>
      .cls-1 {
        fill: #fff;
      }
    </style>
  </defs>
  <title>ara_opener</title>
  <g id="Layer_2" data-name="Layer 2">
    <g id="Layer_1-2" data-name="Layer 1">
      <g>
        <g>
          <g>
            <g>
              <polygon points="53.84 146.92 71.19 146.92 62.28 121.74 53.84 146.92"/>
              <path d="M163.32,113.43a15.46,15.46,0,0,0-2.71-.48q-1.39-.12-3.31-.12v28.79a18.38,18.38,0,0,0,10.42-5.54,14.92,14.92,0,0,0,3.8-10.36,13.83,13.83,0,0,0-2.29-8A10.19,10.19,0,0,0,163.32,113.43Z"/>
              <polygon points="253.45 146.92 270.8 146.92 261.88 121.74 253.45 146.92"/>
              <path d="M1.5,78.85v126.3h332V78.85ZM75.41,184.14a20.31,20.31,0,0,0,4.1-4,6.47,6.47,0,0,0,1.08-3.67,12.92,12.92,0,0,0-.36-2.89q-.36-1.57-1.45-4.7l-3.37-10.12H50.11l-3.49,10.12a39.79,39.79,0,0,0-1.51,4.7,14,14,0,0,0-.42,3.13,5.93,5.93,0,0,0,.84,3.25,28.36,28.36,0,0,0,3.86,4.22H23.25q2-2.17,3.37-3.8A24.81,24.81,0,0,0,29,176.91a29.89,29.89,0,0,0,1.93-4.22q.9-2.41,2.11-6.14L50.11,116.8q.84-2.41,1.33-3.86t.72-2.35a8.56,8.56,0,0,0,.36-2.59,6.76,6.76,0,0,0-1-3.67,18.43,18.43,0,0,0-3.79-3.92H77.21l24.57,66.86q1.2,3.37,2.17,5.6a34,34,0,0,0,2,4,22.86,22.86,0,0,0,2.53,3.43q1.44,1.63,3.61,3.8Zm123.57.24q-4.22.24-8.31.24a46.94,46.94,0,0,1-6.32-.36,14,14,0,0,1-4.64-1.45,14.12,14.12,0,0,1-3.73-2.89,36.86,36.86,0,0,1-3.61-4.7,105,105,0,0,1-6.14-10.54q-3.5-6.69-8.91-18.13v21q0,4,.18,6.56a17.92,17.92,0,0,0,.78,4.4,9.68,9.68,0,0,0,1.63,3.07,15.12,15.12,0,0,0,2.83,2.59H129.11a16.53,16.53,0,0,0,2.83-2.53,9,9,0,0,0,1.63-3,18,18,0,0,0,.78-4.4q.18-2.59.18-6.69V117q0-2.89-.06-4.76a32,32,0,0,0-.24-3.19,16.13,16.13,0,0,0-.42-2.17,10.87,10.87,0,0,0-.72-1.81,9,9,0,0,0-1.57-2.59,20.55,20.55,0,0,0-2.41-2.11H153q8.55,0,13.55.06t8,.3a24.1,24.1,0,0,1,4.82.78,28.17,28.17,0,0,1,3.85,1.51,20.6,20.6,0,0,1,9.16,7.65A20.06,20.06,0,0,1,195.72,122a19,19,0,0,1-4,12.23q-4,5-12.41,8.61,19.27,33.37,28.91,40.72Q203.19,184.14,199,184.38Zm76-.24a20.31,20.31,0,0,0,4.1-4,6.46,6.46,0,0,0,1.09-3.67,13,13,0,0,0-.36-2.89q-.36-1.57-1.45-4.7L275,158.72h-25.3l-3.49,10.12a39.9,39.9,0,0,0-1.51,4.7,14,14,0,0,0-.42,3.13,5.93,5.93,0,0,0,.84,3.25,28.35,28.35,0,0,0,3.85,4.22H222.85q2-2.17,3.37-3.8a24.77,24.77,0,0,0,2.35-3.43,29.76,29.76,0,0,0,1.93-4.22q.9-2.41,2.11-6.14l17.1-49.75q.84-2.41,1.32-3.86t.72-2.35a10.81,10.81,0,0,0,.3-1.45,10.68,10.68,0,0,0,.06-1.14,6.76,6.76,0,0,0-1-3.67,18.42,18.42,0,0,0-3.8-3.92h29.51l24.58,66.86q1.2,3.37,2.17,5.6a34,34,0,0,0,2,4,22.84,22.84,0,0,0,2.53,3.43q1.45,1.63,3.61,3.8Z"/>
            </g>
            <path class="cls-1" d="M333.5,78.85v126.3H1.5V78.85h332m1.5-1.5H0v129.3H335V77.35Z"/>
          </g>
          <g>
            <path class="cls-1" d="M106,176.91a34,34,0,0,1-2-4q-1-2.23-2.17-5.6L77.21,100.42H47.7a18.43,18.43,0,0,1,3.79,3.92,6.76,6.76,0,0,1,1,3.67,8.56,8.56,0,0,1-.36,2.59q-.24.9-.72,2.35t-1.33,3.86L33,166.55q-1.21,3.73-2.11,6.14A29.89,29.89,0,0,1,29,176.91a24.81,24.81,0,0,1-2.35,3.43q-1.33,1.63-3.37,3.8H49.39a28.36,28.36,0,0,1-3.86-4.22,5.93,5.93,0,0,1-.84-3.25,14,14,0,0,1,.42-3.13,39.79,39.79,0,0,1,1.51-4.7l3.49-10.12h25.3l3.37,10.12q1.08,3.13,1.45,4.7a12.92,12.92,0,0,1,.36,2.89,6.47,6.47,0,0,1-1.08,3.67,20.31,20.31,0,0,1-4.1,4h36.74q-2.17-2.17-3.61-3.8A22.86,22.86,0,0,1,106,176.91Zm-52.16-30,8.43-25.18,8.91,25.18Z"/>
            <path class="cls-1" d="M179.34,142.82q8.43-3.61,12.41-8.61a19,19,0,0,0,4-12.23,20.06,20.06,0,0,0-3.37-11.26,20.6,20.6,0,0,0-9.16-7.65,28.17,28.17,0,0,0-3.85-1.51,24.1,24.1,0,0,0-4.82-.78q-3-.24-8-.3T153,100.42H129.11a20.55,20.55,0,0,1,2.41,2.11,9,9,0,0,1,1.57,2.59,10.87,10.87,0,0,1,.72,1.81,16.13,16.13,0,0,1,.42,2.17,32,32,0,0,1,.24,3.19q.06,1.87.06,4.76v50.47q0,4.1-.18,6.69a18,18,0,0,1-.78,4.4,9,9,0,0,1-1.63,3,16.53,16.53,0,0,1-2.83,2.53h33.61a15.12,15.12,0,0,1-2.83-2.59,9.68,9.68,0,0,1-1.63-3.07,17.92,17.92,0,0,1-.78-4.4q-.18-2.59-.18-6.56v-21q5.42,11.45,8.91,18.13a105,105,0,0,0,6.14,10.54,36.86,36.86,0,0,0,3.61,4.7,14.12,14.12,0,0,0,3.73,2.89,14,14,0,0,0,4.64,1.45,46.94,46.94,0,0,0,6.32.36q4.09,0,8.31-.24t9.27-.84Q198.61,176.19,179.34,142.82Zm-11.63-6.75a18.38,18.38,0,0,1-10.42,5.54V112.83q1.93,0,3.31.12a15.46,15.46,0,0,1,2.71.48,10.19,10.19,0,0,1,5.9,4.34,13.83,13.83,0,0,1,2.29,8A14.92,14.92,0,0,1,167.71,136.08Z"/>
            <path class="cls-1" d="M305.61,176.91a34,34,0,0,1-2-4q-1-2.23-2.17-5.6l-24.58-66.86H247.31a18.42,18.42,0,0,1,3.8,3.92,6.76,6.76,0,0,1,1,3.67,10.68,10.68,0,0,1-.06,1.14,10.81,10.81,0,0,1-.3,1.45q-.24.9-.72,2.35t-1.32,3.86l-17.1,49.75q-1.21,3.73-2.11,6.14a29.76,29.76,0,0,1-1.93,4.22,24.77,24.77,0,0,1-2.35,3.43q-1.33,1.63-3.37,3.8H249a28.35,28.35,0,0,1-3.85-4.22,5.93,5.93,0,0,1-.84-3.25,14,14,0,0,1,.42-3.13,39.9,39.9,0,0,1,1.51-4.7l3.49-10.12H275l3.37,10.12q1.08,3.13,1.45,4.7a13,13,0,0,1,.36,2.89,6.46,6.46,0,0,1-1.09,3.67,20.31,20.31,0,0,1-4.1,4h36.74q-2.17-2.17-3.61-3.8A22.84,22.84,0,0,1,305.61,176.91Zm-52.16-30,8.43-25.18,8.91,25.18Z"/>
          </g>
        </g>
        <g>
          <path class="cls-1" d="M49.17,254.7a.54.54,0,0,1,.27.12l.51.54a18.67,18.67,0,0,1-2.33,2,14.46,14.46,0,0,1-2.74,1.53,16.73,16.73,0,0,1-3.27,1,20,20,0,0,1-3.91.35A16.53,16.53,0,0,1,31.25,259a14.52,14.52,0,0,1-5.08-3.53,16.3,16.3,0,0,1-3.33-5.55,21,21,0,0,1-1.2-7.3,20.58,20.58,0,0,1,1.2-7.19,16.11,16.11,0,0,1,3.39-5.56,15.21,15.21,0,0,1,5.24-3.59A17.29,17.29,0,0,1,38.2,225,16.6,16.6,0,0,1,44.32,226a17.35,17.35,0,0,1,5,3l-.37.54a.41.41,0,0,1-.39.17,1.1,1.1,0,0,1-.5-.27l-.93-.67q-.58-.4-1.4-.88a12.17,12.17,0,0,0-1.92-.88,16.14,16.14,0,0,0-5.59-.94,15.92,15.92,0,0,0-6.12,1.15,13.66,13.66,0,0,0-4.8,3.28,14.91,14.91,0,0,0-3.12,5.18A19.87,19.87,0,0,0,23,242.6a20.09,20.09,0,0,0,1.12,6.92,15,15,0,0,0,3.1,5.17,13.43,13.43,0,0,0,4.68,3.25,15,15,0,0,0,5.86,1.13,21,21,0,0,0,3.55-.27,13.64,13.64,0,0,0,2.88-.81,12.4,12.4,0,0,0,2.43-1.32,22.85,22.85,0,0,0,2.22-1.79A.48.48,0,0,1,49.17,254.7Z"/>
          <path class="cls-1" d="M86.71,242.6a21.29,21.29,0,0,1-1.18,7.29,16,16,0,0,1-3.31,5.54,14.36,14.36,0,0,1-5.1,3.52,18.08,18.08,0,0,1-13.08,0,14.36,14.36,0,0,1-5.1-3.52,16,16,0,0,1-3.31-5.54,23.12,23.12,0,0,1,0-14.57,16,16,0,0,1,3.31-5.55,14.64,14.64,0,0,1,5.1-3.54A16.61,16.61,0,0,1,70.56,225a16.88,16.88,0,0,1,6.57,1.24,14.52,14.52,0,0,1,5.1,3.53,16,16,0,0,1,3.31,5.55A21.39,21.39,0,0,1,86.71,242.6Zm-1.42,0a20.85,20.85,0,0,0-1.07-6.9,14.82,14.82,0,0,0-3-5.18,13,13,0,0,0-4.66-3.26,16.35,16.35,0,0,0-11.93,0A13,13,0,0,0,60,230.52a15.11,15.11,0,0,0-3,5.18,22.35,22.35,0,0,0,0,13.79,14.83,14.83,0,0,0,3,5.16,13.11,13.11,0,0,0,4.65,3.23,16.35,16.35,0,0,0,11.93,0,13.12,13.12,0,0,0,4.66-3.23,14.55,14.55,0,0,0,3-5.16A20.84,20.84,0,0,0,85.29,242.6Z"/>
          <path class="cls-1" d="M113.75,258.65v1.18H95.33V225.38h1.35v33.27Z"/>
          <path class="cls-1" d="M138.38,258.65v1.18H120V225.38h1.35v33.27Z"/>
          <path class="cls-1" d="M165,258.67l0,1.15H144.58V225.38h20.33v1.15h-19v15.26h16v1.13h-16v15.75Z"/>
          <path class="cls-1" d="M197.47,254.7a.53.53,0,0,1,.27.12l.51.54a18.61,18.61,0,0,1-2.33,2,14.43,14.43,0,0,1-2.74,1.53,16.7,16.7,0,0,1-3.27,1,20,20,0,0,1-3.91.35,16.53,16.53,0,0,1-6.46-1.24,14.51,14.51,0,0,1-5.08-3.53,16.29,16.29,0,0,1-3.33-5.55,21,21,0,0,1-1.2-7.3,20.58,20.58,0,0,1,1.2-7.19,16.08,16.08,0,0,1,3.39-5.56,15.19,15.19,0,0,1,5.24-3.59,17.29,17.29,0,0,1,6.73-1.27,16.6,16.6,0,0,1,6.13,1.05,17.35,17.35,0,0,1,5,3l-.37.54a.41.41,0,0,1-.39.17,1.1,1.1,0,0,1-.5-.27l-.93-.67q-.58-.4-1.4-.88a12.16,12.16,0,0,0-1.92-.88,16.15,16.15,0,0,0-5.59-.94,15.91,15.91,0,0,0-6.12,1.15,13.67,13.67,0,0,0-4.8,3.28,14.9,14.9,0,0,0-3.12,5.18,19.84,19.84,0,0,0-1.12,6.85,20.07,20.07,0,0,0,1.12,6.92,15,15,0,0,0,3.1,5.17,13.44,13.44,0,0,0,4.68,3.25,15,15,0,0,0,5.86,1.13,21,21,0,0,0,3.55-.27,13.63,13.63,0,0,0,2.88-.81,12.4,12.4,0,0,0,2.43-1.32,22.73,22.73,0,0,0,2.22-1.79A.48.48,0,0,1,197.47,254.7Z"/>
          <path class="cls-1" d="M227.48,226.55H214.86v33.27h-1.35V226.55H200.83v-1.18h26.66Z"/>
          <path class="cls-1" d="M235,259.82h-1.35V225.38H235Z"/>
          <path class="cls-1" d="M275.87,242.6a21.29,21.29,0,0,1-1.18,7.29,16,16,0,0,1-3.31,5.54,14.36,14.36,0,0,1-5.1,3.52,18.08,18.08,0,0,1-13.08,0,14.36,14.36,0,0,1-5.1-3.52,16,16,0,0,1-3.31-5.54,23.12,23.12,0,0,1,0-14.57,16,16,0,0,1,3.31-5.55,14.64,14.64,0,0,1,5.1-3.54,16.61,16.61,0,0,1,6.52-1.25,16.88,16.88,0,0,1,6.57,1.24,14.52,14.52,0,0,1,5.1,3.53,16,16,0,0,1,3.31,5.55A21.39,21.39,0,0,1,275.87,242.6Zm-1.42,0a20.85,20.85,0,0,0-1.07-6.9,14.82,14.82,0,0,0-3-5.18,13,13,0,0,0-4.66-3.26,16.35,16.35,0,0,0-11.93,0,13,13,0,0,0-4.65,3.26,15.11,15.11,0,0,0-3,5.18,22.35,22.35,0,0,0,0,13.79,14.83,14.83,0,0,0,3,5.16,13.11,13.11,0,0,0,4.65,3.23,16.35,16.35,0,0,0,11.93,0,13.12,13.12,0,0,0,4.66-3.23,14.55,14.55,0,0,0,3-5.16A20.84,20.84,0,0,0,274.45,242.6Z"/>
          <path class="cls-1" d="M310.37,225.38v34.45h-.56a.65.65,0,0,1-.54-.29l-23.64-31.95c0,.15,0,.3,0,.45s0,.3,0,.43v31.36h-1.18V225.38h.61a.71.71,0,0,1,.32.06.86.86,0,0,1,.27.26l23.54,31.83c0-.15,0-.29,0-.44s0-.29,0-.42V225.38Z"/>
        </g>
        <g>
          <path class="cls-1" d="M50.87,32.55H38.25V65.82H36.9V32.55H24.21V31.38H50.87Z"/>
          <path class="cls-1" d="M82.91,31.38V65.82H81.54V48.89H58.39V65.82H57V31.38h1.35V47.81H81.54V31.38Z"/>
          <path class="cls-1" d="M114.22,64.67l0,1.15H93.84V31.38h20.33v1.15h-19V47.79h16v1.13h-16V64.67Z"/>
        </g>
        <rect class="cls-1" x="14.75" width="1.5" height="292"/>
      </g>
    </g>
  </g>
</svg>
